<svg width="24" height="24" viewBox="0 0 24 24" fill="none" xmlns="http://www.w3.org/2000/svg">
<g clip-path="url(#clip0_160_32)">
<path d="M20.0003 5C20.5049 4.99984 20.9909 5.19041 21.3608 5.5335C21.7308 5.87659 21.9575 6.34684 21.9953 6.85L22.0003 7V17C22.0005 17.5046 21.8099 17.9906 21.4668 18.3605C21.1237 18.7305 20.6534 18.9572 20.1503 18.995L20.0003 19H9.00029C8.7805 19 8.56681 18.9276 8.39229 18.794L8.29229 18.707L3.25529 13.667C2.44629 12.763 2.40829 11.417 3.17229 10.437L3.29229 10.293L8.29229 5.293C8.44811 5.13738 8.65094 5.03755 8.86929 5.009L9.00029 5H20.0003ZM12.5113 9.14C12.311 9.02082 12.0755 8.97531 11.8452 9.01134C11.615 9.04736 11.4046 9.16266 11.2503 9.33732C11.0961 9.51198 11.0076 9.73503 11.0003 9.96794C10.993 10.2009 11.0673 10.429 11.2103 10.613L11.2933 10.707L12.5853 12L11.2933 13.293L11.2103 13.387C11.0611 13.5794 10.9873 13.8196 11.0026 14.0626C11.018 14.3056 11.1214 14.5346 11.2936 14.7067C11.4657 14.8789 11.6947 14.9823 11.9377 14.9976C12.1807 15.013 12.4209 14.9391 12.6133 14.79L12.7073 14.707L14.0003 13.415L15.2933 14.707L15.3873 14.79C15.5797 14.9391 15.8199 15.013 16.0629 14.9976C16.3059 14.9823 16.5349 14.8789 16.707 14.7067C16.8792 14.5346 16.9826 14.3056 16.9979 14.0626C17.0133 13.8196 16.9394 13.5794 16.7903 13.387L16.7073 13.293L15.4153 12L16.7073 10.707L16.7903 10.613C16.9394 10.4206 17.0133 10.1804 16.9979 9.9374C16.9826 9.69444 16.8792 9.46541 16.707 9.29326C16.5349 9.12112 16.3059 9.01768 16.0629 9.00235C15.8199 8.98702 15.5797 9.06086 15.3873 9.21L15.2933 9.293L14.0003 10.585L12.7073 9.293L12.6133 9.21L12.5113 9.14Z" fill="#DADCE3"/>
</g>
<defs>
<clipPath id="clip0_160_32">
<rect width="24" height="24" fill="white"/>
</clipPath>
</defs>
</svg>
