<svg width="20" height="20" viewBox="0 0 20 20" fill="none" xmlns="http://www.w3.org/2000/svg">
<g clip-path="url(#clip0_97_105)">
<path d="M4.16667 15.8335L6.46417 9.70766C6.5237 9.54885 6.63027 9.41198 6.76964 9.31534C6.90902 9.21871 7.07456 9.16689 7.24417 9.16683H17.5M4.16667 15.8335H15.855C16.2427 15.8334 16.6183 15.6981 16.917 15.4509C17.2158 15.2038 17.419 14.8602 17.4917 14.4793L18.3217 10.1368C18.3415 10.0175 18.3351 9.89528 18.303 9.77867C18.2708 9.66205 18.2137 9.55384 18.1355 9.46153C18.0573 9.36923 17.96 9.29506 17.8502 9.24417C17.7405 9.19328 17.621 9.16688 17.5 9.16683M4.16667 15.8335C3.72464 15.8335 3.30072 15.6579 2.98816 15.3453C2.67559 15.0328 2.5 14.6089 2.5 14.1668V5.00016C2.5 4.55814 2.67559 4.13421 2.98816 3.82165C3.30072 3.50909 3.72464 3.3335 4.16667 3.3335H7.5L10 5.8335H15.8333C16.2754 5.8335 16.6993 6.00909 17.0118 6.32165C17.3244 6.63421 17.5 7.05814 17.5 7.50016V9.16683" stroke="black" stroke-width="2" stroke-linecap="round" stroke-linejoin="round"/>
</g>
<defs>
<clipPath id="clip0_97_105">
<rect width="20" height="20" fill="white"/>
</clipPath>
</defs>
</svg>
