<svg width="18" height="18" viewBox="0 0 18 18" fill="none" xmlns="http://www.w3.org/2000/svg">
<g clip-path="url(#clip0_61_115)">
<path d="M6.75 11.25L11.25 6.75" stroke="#EF7A17" stroke-width="2" stroke-linecap="round" stroke-linejoin="round"/>
<path d="M8.25 4.49999L8.59725 4.09799C9.3006 3.39473 10.2545 2.99969 11.2491 2.99976C12.2438 2.99983 13.1976 3.39501 13.9009 4.09836C14.6041 4.80171 14.9992 5.75563 14.9991 6.75025C14.999 7.74487 14.6039 8.69873 13.9005 9.40199L13.5 9.74999" stroke="#EF7A17" stroke-width="2" stroke-linecap="round" stroke-linejoin="round"/>
<path d="M9.75011 13.5L9.45236 13.9005C8.74079 14.6041 7.78045 14.9988 6.77973 14.9988C5.77902 14.9988 4.81867 14.6041 4.10711 13.9005C3.75637 13.5537 3.47793 13.1408 3.28789 12.6856C3.09785 12.2304 3 11.7421 3 11.2489C3 10.7556 3.09785 10.2673 3.28789 9.81214C3.47793 9.35698 3.75637 8.94405 4.10711 8.59725L4.50011 8.25" stroke="#EF7A17" stroke-width="2" stroke-linecap="round" stroke-linejoin="round"/>
</g>
<defs>
<clipPath id="clip0_61_115">
<rect width="18" height="18" fill="white"/>
</clipPath>
</defs>
</svg>
