<svg width="18" height="18" viewBox="0 0 18 18" fill="none" xmlns="http://www.w3.org/2000/svg">
<g clip-path="url(#clip0_72_61)">
<path d="M14.9992 4.5C15.1903 4.50021 15.3742 4.57341 15.5132 4.70464C15.6522 4.83586 15.7358 5.01521 15.747 5.20605C15.7583 5.39688 15.6962 5.58478 15.5735 5.73137C15.4508 5.87796 15.2767 5.97217 15.0869 5.99475L14.9992 6H14.9384L14.2492 14.25C14.2492 14.8239 14.0299 15.3761 13.6362 15.7937C13.2425 16.2113 12.7041 16.4626 12.1312 16.4963L11.9992 16.5H5.99917C4.80067 16.5 3.82117 15.5632 3.75517 14.4375L3.75142 14.3123L3.05917 6H2.99917C2.80801 5.99979 2.62414 5.92659 2.48514 5.79536C2.34614 5.66414 2.26249 5.48479 2.25129 5.29395C2.24009 5.10312 2.30218 4.91522 2.42487 4.76863C2.54756 4.62204 2.7216 4.52783 2.91142 4.50525L2.99917 4.5H14.9992Z" fill="#FF6363"/>
<path d="M10.5 1.5C10.8978 1.5 11.2794 1.65804 11.5607 1.93934C11.842 2.22064 12 2.60218 12 3C11.9998 3.19116 11.9266 3.37502 11.7954 3.51403C11.6641 3.65303 11.4848 3.73668 11.294 3.74788C11.1031 3.75908 10.9152 3.69699 10.7686 3.5743C10.622 3.45161 10.5278 3.27757 10.5052 3.08775L10.5 3H7.5L7.49475 3.08775C7.47217 3.27757 7.37796 3.45161 7.23137 3.5743C7.08478 3.69699 6.89688 3.75908 6.70605 3.74788C6.51521 3.73668 6.33586 3.65303 6.20464 3.51403C6.07341 3.37502 6.00021 3.19116 6 3C5.99988 2.62157 6.1428 2.25708 6.40012 1.97959C6.65744 1.7021 7.01013 1.53213 7.3875 1.50375L7.5 1.5H10.5Z" fill="#FF6363"/>
</g>
<defs>
<clipPath id="clip0_72_61">
<rect width="18" height="18" fill="white"/>
</clipPath>
</defs>
</svg>
