<svg width="20" height="20" viewBox="0 0 20 20" fill="none" xmlns="http://www.w3.org/2000/svg">
<g clip-path="url(#clip0_61_24)">
<path d="M5 17.5L17.5 5L15 2.5L2.5 15L5 17.5Z" stroke="#999999" stroke-width="2" stroke-linecap="round" stroke-linejoin="round"/>
<path d="M3.28521 15.2062C2.89264 15.5947 2.88931 16.2279 3.27777 16.6204C3.66623 17.013 4.29939 17.0163 4.69197 16.6279L3.28521 15.2062ZM12.2966 6.28918L3.28521 15.2062L4.69197 16.6279L13.7034 7.71082L12.2966 6.28918Z" fill="#999999"/>
<path d="M7.50065 2.5C7.50065 2.94203 7.67625 3.36595 7.98881 3.67851C8.30137 3.99107 8.72529 4.16667 9.16732 4.16667C8.72529 4.16667 8.30137 4.34226 7.98881 4.65482C7.67625 4.96738 7.50065 5.39131 7.50065 5.83333C7.50065 5.39131 7.32506 4.96738 7.0125 4.65482C6.69993 4.34226 6.27601 4.16667 5.83398 4.16667C6.27601 4.16667 6.69993 3.99107 7.0125 3.67851C7.32506 3.36595 7.50065 2.94203 7.50065 2.5Z" stroke="#999999" stroke-width="2" stroke-linecap="round" stroke-linejoin="round"/>
<path d="M15.8327 10.8333C15.8327 11.2753 16.0083 11.6992 16.3208 12.0118C16.6334 12.3243 17.0573 12.4999 17.4993 12.4999C17.0573 12.4999 16.6334 12.6755 16.3208 12.9881C16.0083 13.3006 15.8327 13.7246 15.8327 14.1666C15.8327 13.7246 15.6571 13.3006 15.3445 12.9881C15.032 12.6755 14.608 12.4999 14.166 12.4999C14.608 12.4999 15.032 12.3243 15.3445 12.0118C15.6571 11.6992 15.8327 11.2753 15.8327 10.8333Z" stroke="#999999" stroke-width="2" stroke-linecap="round" stroke-linejoin="round"/>
</g>
<defs>
<clipPath id="clip0_61_24">
<rect width="20" height="20" fill="white"/>
</clipPath>
</defs>
</svg>
