<svg width="20" height="20" viewBox="0 0 20 20" fill="none" xmlns="http://www.w3.org/2000/svg">
<g clip-path="url(#clip0_110_9)">
<path d="M5 17.5L17.5 5L15 2.5L2.5 15L5 17.5Z" stroke="white" stroke-width="2" stroke-linecap="round" stroke-linejoin="round"/>
<path d="M3.28521 15.2062C2.89264 15.5947 2.88931 16.2279 3.27777 16.6204C3.66624 17.013 4.29939 17.0163 4.69197 16.6279L3.28521 15.2062ZM12.2966 6.28918L3.28521 15.2062L4.69197 16.6279L13.7034 7.71082L12.2966 6.28918Z" fill="white"/>
<path d="M7.49967 2.5C7.49967 2.94203 7.67527 3.36595 7.98783 3.67851C8.30039 3.99107 8.72431 4.16667 9.16634 4.16667C8.72431 4.16667 8.30039 4.34226 7.98783 4.65482C7.67527 4.96738 7.49967 5.39131 7.49967 5.83333C7.49967 5.39131 7.32408 4.96738 7.01152 4.65482C6.69896 4.34226 6.27504 4.16667 5.83301 4.16667C6.27504 4.16667 6.69896 3.99107 7.01152 3.67851C7.32408 3.36595 7.49967 2.94203 7.49967 2.5Z" stroke="white" stroke-width="2" stroke-linecap="round" stroke-linejoin="round"/>
<path d="M15.8337 10.8333C15.8337 11.2753 16.0093 11.6992 16.3218 12.0118C16.6344 12.3243 17.0583 12.4999 17.5003 12.4999C17.0583 12.4999 16.6344 12.6755 16.3218 12.9881C16.0093 13.3006 15.8337 13.7246 15.8337 14.1666C15.8337 13.7246 15.6581 13.3006 15.3455 12.9881C15.0329 12.6755 14.609 12.4999 14.167 12.4999C14.609 12.4999 15.0329 12.3243 15.3455 12.0118C15.6581 11.6992 15.8337 11.2753 15.8337 10.8333Z" stroke="white" stroke-width="2" stroke-linecap="round" stroke-linejoin="round"/>
</g>
<defs>
<clipPath id="clip0_110_9">
<rect width="20" height="20" fill="white"/>
</clipPath>
</defs>
</svg>
